<svg xmlns="http://www.w3.org/2000/svg" width="256" height="256" viewBox="0 0 100 100"><rect width="100" height="100" rx="50" fill="#e81f2d"></rect><path d="M48.29 84.29Q43.61 84.29 39.92 83.48Q36.23 82.67 31.82 81.32L31.82 81.32Q29.12 80.33 27.77 80.24L27.77 80.24L28.49 63.95L34.25 63.95L35.78 75.65Q37.31 77.09 40.77 78.22Q44.24 79.34 48.38 79.34L48.38 79.34Q55.22 79.34 58.77 76.28Q62.33 73.22 62.33 67.82L62.33 67.82Q62.33 64.31 60.39 61.79Q58.46 59.27 55.26 57.47Q52.07 55.67 46.49 53.24L46.49 53.24Q41.45 50.99 37.71 48.65Q33.98 46.31 31.23 42.39Q28.49 38.48 28.49 32.99L28.49 32.99Q28.49 28.04 31.14 24.13Q33.80 20.21 38.80 17.96Q43.79 15.71 50.45 15.71L50.45 15.71Q54.59 15.71 57.78 16.34Q60.98 16.97 65.03 18.05L65.03 18.05Q66.83 18.68 68.09 18.86L68.09 18.86L67.55 33.98L62.06 33.98L60.26 22.91Q59.36 22.01 56.52 21.20Q53.69 20.39 50.36 20.39L50.36 20.39Q44.15 20.39 40.95 23Q37.76 25.61 37.76 30.56L37.76 30.56Q37.76 34.16 39.69 36.59Q41.63 39.02 44.51 40.73Q47.39 42.44 53.69 45.41L53.69 45.41Q59.54 48.20 63.23 50.45Q66.92 52.70 69.57 56.34Q72.23 59.99 72.23 65.03L72.23 65.03Q72.23 69.80 69.57 74.21Q66.92 78.62 61.47 81.45Q56.03 84.29 48.29 84.29L48.29 84.29Z" fill="#fff"></path></svg>